<mxfile host="app.diagrams.net" agent="Mozilla/5.0 (Windows NT 10.0; Win64; x64) AppleWebKit/537.36 (KHTML, like Gecko) Chrome/131.0.0.0 Safari/537.36" version="26.0.6">
  <diagram name="Страница — 1" id="lowcXcFxiL13PWXX_mxo">
    <mxGraphModel dx="1502" dy="-9956" grid="1" gridSize="10" guides="1" tooltips="1" connect="1" arrows="1" fold="1" page="1" pageScale="1" pageWidth="827" pageHeight="1169" math="0" shadow="0">
      <root>
        <mxCell id="0" />
        <mxCell id="1" parent="0" />
        <mxCell id="max8NpHxDRzMTPAFwEB_-426" value="&lt;font style=&quot;font-size: 24px;&quot;&gt;&lt;b&gt;10. Критерии приемки и нефункциональные требования&lt;/b&gt;&lt;/font&gt;" style="text;whiteSpace=wrap;html=1;" vertex="1" parent="1">
          <mxGeometry x="85.90999999999997" y="10560" width="790" height="40" as="geometry" />
        </mxCell>
        <mxCell id="max8NpHxDRzMTPAFwEB_-427" value="" style="shape=table;startSize=0;container=1;collapsible=0;childLayout=tableLayout;movable=1;resizable=1;rotatable=1;deletable=1;editable=1;locked=0;connectable=1;" vertex="1" parent="1">
          <mxGeometry x="80" y="10682" width="870" height="370" as="geometry" />
        </mxCell>
        <mxCell id="max8NpHxDRzMTPAFwEB_-428" value="" style="shape=tableRow;horizontal=0;startSize=0;swimlaneHead=0;swimlaneBody=0;strokeColor=inherit;top=0;left=0;bottom=0;right=0;collapsible=0;dropTarget=0;fillColor=none;points=[[0,0.5],[1,0.5]];portConstraint=eastwest;movable=1;resizable=1;rotatable=1;deletable=1;editable=1;locked=0;connectable=1;" vertex="1" parent="max8NpHxDRzMTPAFwEB_-427">
          <mxGeometry width="870" height="106" as="geometry" />
        </mxCell>
        <mxCell id="max8NpHxDRzMTPAFwEB_-429" value="US" style="shape=partialRectangle;html=1;whiteSpace=wrap;connectable=1;strokeColor=inherit;overflow=hidden;fillColor=none;top=0;left=0;bottom=0;right=0;pointerEvents=1;movable=1;resizable=1;rotatable=1;deletable=1;editable=1;locked=0;" vertex="1" parent="max8NpHxDRzMTPAFwEB_-428">
          <mxGeometry width="191" height="106" as="geometry">
            <mxRectangle width="191" height="106" as="alternateBounds" />
          </mxGeometry>
        </mxCell>
        <mxCell id="max8NpHxDRzMTPAFwEB_-430" value="&lt;p data-pm-slice=&quot;1 1 []&quot;&gt;&lt;font style=&quot;font-size: 16px;&quot;&gt;Я, как пользователь сайта детских психологов, хочу иметь возможность оставить заявку на консультацию к специалисту, чтобы сократить время коммуникации.&lt;/font&gt;&lt;/p&gt;" style="shape=partialRectangle;html=1;whiteSpace=wrap;connectable=1;strokeColor=inherit;overflow=hidden;fillColor=none;top=0;left=0;bottom=0;right=0;pointerEvents=1;movable=1;resizable=1;rotatable=1;deletable=1;editable=1;locked=0;" vertex="1" parent="max8NpHxDRzMTPAFwEB_-428">
          <mxGeometry x="191" width="679" height="106" as="geometry">
            <mxRectangle width="679" height="106" as="alternateBounds" />
          </mxGeometry>
        </mxCell>
        <mxCell id="max8NpHxDRzMTPAFwEB_-431" value="" style="shape=tableRow;horizontal=0;startSize=0;swimlaneHead=0;swimlaneBody=0;strokeColor=inherit;top=0;left=0;bottom=0;right=0;collapsible=0;dropTarget=0;fillColor=none;points=[[0,0.5],[1,0.5]];portConstraint=eastwest;movable=1;resizable=1;rotatable=1;deletable=1;editable=1;locked=0;connectable=1;" vertex="1" parent="max8NpHxDRzMTPAFwEB_-427">
          <mxGeometry y="106" width="870" height="264" as="geometry" />
        </mxCell>
        <mxCell id="max8NpHxDRzMTPAFwEB_-432" value="UC" style="shape=partialRectangle;html=1;whiteSpace=wrap;connectable=1;strokeColor=inherit;overflow=hidden;fillColor=none;top=0;left=0;bottom=0;right=0;pointerEvents=1;movable=1;resizable=1;rotatable=1;deletable=1;editable=1;locked=0;" vertex="1" parent="max8NpHxDRzMTPAFwEB_-431">
          <mxGeometry width="191" height="264" as="geometry">
            <mxRectangle width="191" height="264" as="alternateBounds" />
          </mxGeometry>
        </mxCell>
        <mxCell id="max8NpHxDRzMTPAFwEB_-433" value="&lt;div align=&quot;left&quot;&gt;&lt;ol data-pm-slice=&quot;3 3 []&quot; start=&quot;1&quot; data-spread=&quot;false&quot;&gt;&lt;li&gt;&lt;p&gt;&lt;font style=&quot;font-size: 16px;&quot;&gt;Пользователь открывает сайт и запрашивает свободных психологов.&lt;/font&gt;&lt;/p&gt;&lt;/li&gt;&lt;li&gt;&lt;p&gt;&lt;font size=&quot;3&quot; style=&quot;&quot;&gt;Система отображает список доступных психологов.&lt;/font&gt;&lt;/p&gt;&lt;/li&gt;&lt;li&gt;&lt;p&gt;&lt;font size=&quot;3&quot;&gt;&lt;span&gt;Пользователь выбирает психолога, и система отображает доступные слоты для консультации.&lt;/span&gt;&lt;/font&gt;&lt;/p&gt;&lt;/li&gt;&lt;li&gt;&lt;p&gt;&lt;font size=&quot;3&quot;&gt;&lt;span&gt;Пользователь выбирает слот и заполняет форму для ввода личных данных.&lt;/span&gt;&lt;/font&gt;&lt;/p&gt;&lt;/li&gt;&lt;li&gt;&lt;p&gt;&lt;font size=&quot;3&quot;&gt;&lt;span&gt;Система отображает подтверждение о успешном отправлении заявки.&lt;br&gt;&lt;/span&gt;&lt;/font&gt;&lt;/p&gt;&lt;/li&gt;&lt;/ol&gt;&lt;/div&gt;&lt;div&gt;&lt;span style=&quot;background-color: initial; white-space-collapse: preserve;&quot;&gt;&lt;/span&gt;&lt;span style=&quot;background-color: initial; white-space-collapse: preserve;&quot;&gt;&lt;font style=&quot;font-size: 14px;&quot; face=&quot;Roboto, -apple-system, BlinkMacSystemFont, Apple Color Emoji, Segoe UI, Oxygen, Ubuntu, Cantarell, Fira Sans, Droid Sans, Helvetica Neue, sans-serif&quot;&gt;&lt;b style=&quot;&quot;&gt;Критерий успеха&lt;/b&gt;:  &lt;/font&gt;&lt;/span&gt;&lt;font size=&quot;3&quot;&gt;&lt;span&gt;Пользователь отправил заявку и получил подтверждение от системы&lt;/span&gt;&lt;/font&gt;&lt;span style=&quot;background-color: initial; white-space-collapse: preserve;&quot;&gt;&lt;font style=&quot;font-size: 14px;&quot; face=&quot;Roboto, -apple-system, BlinkMacSystemFont, Apple Color Emoji, Segoe UI, Oxygen, Ubuntu, Cantarell, Fira Sans, Droid Sans, Helvetica Neue, sans-serif&quot;&gt;. &lt;/font&gt;&lt;/span&gt;&lt;/div&gt;" style="shape=partialRectangle;html=1;whiteSpace=wrap;connectable=1;strokeColor=inherit;overflow=hidden;fillColor=none;top=0;left=0;bottom=0;right=0;pointerEvents=1;movable=1;resizable=1;rotatable=1;deletable=1;editable=1;locked=0;" vertex="1" parent="max8NpHxDRzMTPAFwEB_-431">
          <mxGeometry x="191" width="679" height="264" as="geometry">
            <mxRectangle width="679" height="264" as="alternateBounds" />
          </mxGeometry>
        </mxCell>
        <mxCell id="max8NpHxDRzMTPAFwEB_-434" value="&lt;font style=&quot;font-size: 17px;&quot;&gt;Номер кейса: 1&lt;/font&gt;" style="text;whiteSpace=wrap;html=1;movable=1;resizable=1;rotatable=1;deletable=1;editable=1;locked=0;connectable=1;" vertex="1" parent="1">
          <mxGeometry x="380" y="11088.88" width="190" height="40" as="geometry" />
        </mxCell>
        <mxCell id="max8NpHxDRzMTPAFwEB_-435" value="&lt;font style=&quot;font-size: 14px;&quot;&gt;&lt;b style=&quot;font-weight:normal;&quot; id=&quot;docs-internal-guid-d930886a-7fff-87ad-3268-db77165c6cd9&quot;&gt;&lt;p dir=&quot;ltr&quot; style=&quot;line-height:1.38;margin-top:0pt;margin-bottom:0pt;&quot;&gt;&lt;span style=&quot;font-family: Arial, sans-serif; color: rgb(31, 35, 40); background-color: rgb(255, 255, 255); font-weight: 700; font-style: normal; font-variant: normal; text-decoration: none; vertical-align: baseline; white-space: pre-wrap;&quot;&gt;Функциональность&lt;/span&gt;&lt;span style=&quot;font-family: Arial, sans-serif; color: rgb(31, 35, 40); background-color: rgb(255, 255, 255); font-weight: 400; font-style: normal; font-variant: normal; text-decoration: none; vertical-align: baseline; white-space: pre-wrap;&quot;&gt;: &lt;/span&gt;&lt;font&gt;&lt;span&gt;Запрос доступных психологов и слотов&lt;/span&gt;&lt;/font&gt;&lt;/p&gt;&lt;/b&gt;&lt;b style=&quot;font-weight:normal;&quot; id=&quot;docs-internal-guid-d930886a-7fff-87ad-3268-db77165c6cd9&quot;&gt;&lt;p dir=&quot;ltr&quot; style=&quot;line-height:1.38;margin-top:0pt;margin-bottom:0pt;&quot;&gt;&lt;span style=&quot;font-family: Arial, sans-serif; color: rgb(31, 35, 40); background-color: rgb(255, 255, 255); font-weight: 400; font-style: normal; font-variant: normal; text-decoration: none; vertical-align: baseline; white-space: pre-wrap;&quot;&gt;&lt;br&gt;&lt;/span&gt;&lt;/p&gt;&lt;/b&gt;&lt;/font&gt;&lt;p data-pm-slice=&quot;1 1 []&quot;&gt;&lt;font size=&quot;3&quot;&gt;&lt;span&gt;&lt;b&gt;Дано&lt;/b&gt;: Пользователь находится на странице запроса доступных психологов.&amp;nbsp;&lt;/span&gt;&lt;/font&gt;&lt;/p&gt;&lt;p data-pm-slice=&quot;1 1 []&quot;&gt;&lt;font size=&quot;3&quot;&gt;&lt;span&gt;&lt;b&gt;Когда&lt;/b&gt;: Пользователь не выбирает ни одного специалиста и пытается продолжить.&amp;nbsp;&lt;/span&gt;&lt;/font&gt;&lt;/p&gt;&lt;p data-pm-slice=&quot;1 1 []&quot;&gt;&lt;font size=&quot;3&quot;&gt;&lt;span&gt;&lt;b&gt;Тогда&lt;/b&gt;: Система выдаёт сообщение с просьбой выбрать хотя бы одного психолога.&lt;/span&gt;&lt;/font&gt;&lt;/p&gt;" style="text;whiteSpace=wrap;html=1;movable=1;resizable=1;rotatable=1;deletable=1;editable=1;locked=0;connectable=1;" vertex="1" parent="1">
          <mxGeometry x="85" y="11122" width="560" height="191.87" as="geometry" />
        </mxCell>
        <mxCell id="max8NpHxDRzMTPAFwEB_-436" value="&lt;font style=&quot;font-size: 17px;&quot;&gt;Номер кейса: 2&lt;/font&gt;" style="text;whiteSpace=wrap;html=1;" vertex="1" parent="1">
          <mxGeometry x="360.91" y="11362" width="160" height="40" as="geometry" />
        </mxCell>
        <mxCell id="max8NpHxDRzMTPAFwEB_-437" value="&lt;div&gt;&lt;font style=&quot;font-size: 14px;&quot;&gt;&lt;b&gt;Функциональность&lt;/b&gt;: &lt;span&gt;Выбор слота для консультации&lt;/span&gt;&lt;/font&gt;&lt;/div&gt;&lt;div&gt;&lt;font style=&quot;font-size: 14px;&quot;&gt;&lt;span&gt;&lt;br&gt;&lt;/span&gt;&lt;/font&gt;&lt;/div&gt;&lt;p&gt;&lt;font size=&quot;3&quot;&gt;&lt;span&gt;&lt;b&gt;Дано&lt;/b&gt;: Пользователь находится на странице выбора слота.&amp;nbsp;&lt;/span&gt;&lt;/font&gt;&lt;/p&gt;&lt;p&gt;&lt;b style=&quot;font-size: medium; background-color: transparent; color: light-dark(rgb(0, 0, 0), rgb(255, 255, 255));&quot;&gt;Когда&lt;/b&gt;&lt;span style=&quot;font-size: medium; background-color: transparent; color: light-dark(rgb(0, 0, 0), rgb(255, 255, 255));&quot;&gt;: Пользователь выбирает уже занятый слот.&amp;nbsp;&lt;/span&gt;&lt;/p&gt;&lt;p&gt;&lt;font size=&quot;3&quot;&gt;&lt;span&gt;&lt;b&gt;Тогда&lt;/b&gt;: Система отображает сообщение о занятости слота и предлагает выбрать другой слот.&lt;/span&gt;&lt;/font&gt;&lt;/p&gt;" style="text;whiteSpace=wrap;html=1;" vertex="1" parent="1">
          <mxGeometry x="85" y="11422" width="560" height="170" as="geometry" />
        </mxCell>
        <mxCell id="max8NpHxDRzMTPAFwEB_-438" value="&lt;font style=&quot;font-size: 17px;&quot;&gt;Номер кейса: 3&lt;/font&gt;" style="text;whiteSpace=wrap;html=1;" vertex="1" parent="1">
          <mxGeometry x="361.39" y="11630" width="190" height="40" as="geometry" />
        </mxCell>
        <mxCell id="max8NpHxDRzMTPAFwEB_-439" value="&lt;div&gt;&lt;font style=&quot;font-size: 14px;&quot;&gt;&lt;b&gt;Функциональность&lt;/b&gt;: З&lt;span&gt;аполнение формы&lt;/span&gt;&lt;/font&gt;&lt;/div&gt;&lt;div&gt;&lt;font style=&quot;font-size: 14px;&quot;&gt;&lt;span&gt;&lt;br&gt;&lt;/span&gt;&lt;/font&gt;&lt;/div&gt;&lt;p data-pm-slice=&quot;1 1 []&quot;&gt;&lt;font size=&quot;3&quot;&gt;&lt;span&gt;&lt;b&gt;Дано&lt;/b&gt;: Пользователь находится на странице запроса доступных психологов.&lt;b&gt;&lt;br&gt;&lt;/b&gt;&lt;/span&gt;&lt;/font&gt;&lt;/p&gt;&lt;p data-pm-slice=&quot;1 1 []&quot;&gt;&lt;b style=&quot;font-size: medium; background-color: transparent; color: light-dark(rgb(0, 0, 0), rgb(255, 255, 255));&quot;&gt;Когда&lt;/b&gt;&lt;span style=&quot;font-size: medium; background-color: transparent; color: light-dark(rgb(0, 0, 0), rgb(255, 255, 255));&quot;&gt;: Пользователь указывает неверные или неполные данные в форме.&lt;/span&gt;&lt;/p&gt;&lt;p data-pm-slice=&quot;1 1 []&quot;&gt;&lt;b style=&quot;font-size: medium; background-color: transparent; color: light-dark(rgb(0, 0, 0), rgb(255, 255, 255));&quot;&gt;Тогда&lt;/b&gt;&lt;span style=&quot;font-size: medium; background-color: transparent; color: light-dark(rgb(0, 0, 0), rgb(255, 255, 255));&quot;&gt;: Система выдаёт сообщение об ошибке и просит исправить данные.&lt;/span&gt;&lt;/p&gt;" style="text;whiteSpace=wrap;html=1;" vertex="1" parent="1">
          <mxGeometry x="85" y="11710" width="610" height="220" as="geometry" />
        </mxCell>
        <mxCell id="max8NpHxDRzMTPAFwEB_-440" value="&lt;b&gt;&lt;font style=&quot;font-size: 15px;&quot;&gt;Критерии приемки&lt;/font&gt;&lt;/b&gt;" style="text;html=1;align=center;verticalAlign=middle;resizable=1;points=[];autosize=1;strokeColor=none;fillColor=none;movable=1;rotatable=1;deletable=1;editable=1;locked=0;connectable=1;" vertex="1" parent="1">
          <mxGeometry x="361.39" y="10630" width="160" height="30" as="geometry" />
        </mxCell>
        <mxCell id="max8NpHxDRzMTPAFwEB_-442" value="" style="rounded=1;whiteSpace=wrap;html=1;" vertex="1" parent="1">
          <mxGeometry x="717.47" y="11080" width="190" height="250" as="geometry" />
        </mxCell>
        <mxCell id="max8NpHxDRzMTPAFwEB_-443" value="Выбор специалиста" style="swimlane;fontStyle=0;childLayout=stackLayout;horizontal=1;startSize=30;horizontalStack=0;resizeParent=1;resizeParentMax=0;resizeLast=0;collapsible=1;marginBottom=0;whiteSpace=wrap;html=1;" vertex="1" parent="1">
          <mxGeometry x="742.47" y="11106" width="140" height="120" as="geometry" />
        </mxCell>
        <mxCell id="max8NpHxDRzMTPAFwEB_-444" value="Денис П." style="text;strokeColor=none;fillColor=none;align=left;verticalAlign=middle;spacingLeft=4;spacingRight=4;overflow=hidden;points=[[0,0.5],[1,0.5]];portConstraint=eastwest;rotatable=0;whiteSpace=wrap;html=1;" vertex="1" parent="max8NpHxDRzMTPAFwEB_-443">
          <mxGeometry y="30" width="140" height="30" as="geometry" />
        </mxCell>
        <mxCell id="max8NpHxDRzMTPAFwEB_-445" value="Галина К." style="text;strokeColor=none;fillColor=none;align=left;verticalAlign=middle;spacingLeft=4;spacingRight=4;overflow=hidden;points=[[0,0.5],[1,0.5]];portConstraint=eastwest;rotatable=0;whiteSpace=wrap;html=1;" vertex="1" parent="max8NpHxDRzMTPAFwEB_-443">
          <mxGeometry y="60" width="140" height="30" as="geometry" />
        </mxCell>
        <mxCell id="max8NpHxDRzMTPAFwEB_-446" value="Ирина П." style="text;strokeColor=none;fillColor=none;align=left;verticalAlign=middle;spacingLeft=4;spacingRight=4;overflow=hidden;points=[[0,0.5],[1,0.5]];portConstraint=eastwest;rotatable=0;whiteSpace=wrap;html=1;" vertex="1" parent="max8NpHxDRzMTPAFwEB_-443">
          <mxGeometry y="90" width="140" height="30" as="geometry" />
        </mxCell>
        <mxCell id="max8NpHxDRzMTPAFwEB_-447" value="" style="rounded=1;whiteSpace=wrap;html=1;strokeColor=#FF3333;" vertex="1" parent="1">
          <mxGeometry x="751.47" y="11253.869999999999" width="120" height="60" as="geometry" />
        </mxCell>
        <mxCell id="max8NpHxDRzMTPAFwEB_-448" value="Записаться на консультацию" style="text;whiteSpace=wrap;html=1;" vertex="1" parent="1">
          <mxGeometry x="766.47" y="11263.869999999999" width="120" height="40" as="geometry" />
        </mxCell>
        <mxCell id="max8NpHxDRzMTPAFwEB_-449" value="" style="rounded=1;whiteSpace=wrap;html=1;" vertex="1" parent="1">
          <mxGeometry x="720" y="11362" width="190" height="250" as="geometry" />
        </mxCell>
        <mxCell id="max8NpHxDRzMTPAFwEB_-456" value="Выберите доступную дату и время" style="rounded=0;whiteSpace=wrap;html=1;" vertex="1" parent="1">
          <mxGeometry x="748.5" y="11382" width="140" height="30" as="geometry" />
        </mxCell>
        <mxCell id="max8NpHxDRzMTPAFwEB_-457" value="1 ноября 13-30" style="rounded=0;whiteSpace=wrap;html=1;" vertex="1" parent="1">
          <mxGeometry x="768.5" y="11452" width="93" height="35" as="geometry" />
        </mxCell>
        <mxCell id="max8NpHxDRzMTPAFwEB_-458" value="15 ноября 12-00" style="rounded=0;whiteSpace=wrap;html=1;strokeColor=#FF3333;" vertex="1" parent="1">
          <mxGeometry x="768.5" y="11512" width="93" height="30" as="geometry" />
        </mxCell>
        <mxCell id="max8NpHxDRzMTPAFwEB_-459" value="1 декабря 13-30" style="rounded=0;whiteSpace=wrap;html=1;" vertex="1" parent="1">
          <mxGeometry x="768.5" y="11562" width="93" height="35" as="geometry" />
        </mxCell>
        <mxCell id="max8NpHxDRzMTPAFwEB_-460" value="" style="rounded=1;whiteSpace=wrap;html=1;" vertex="1" parent="1">
          <mxGeometry x="720" y="11642" width="200" height="298" as="geometry" />
        </mxCell>
        <mxCell id="max8NpHxDRzMTPAFwEB_-461" value="Ваше имя" style="rounded=0;whiteSpace=wrap;html=1;" vertex="1" parent="1">
          <mxGeometry x="755" y="11660" width="60" height="30" as="geometry" />
        </mxCell>
        <mxCell id="max8NpHxDRzMTPAFwEB_-462" value="Телефон" style="rounded=0;whiteSpace=wrap;html=1;" vertex="1" parent="1">
          <mxGeometry x="755" y="11760" width="70" height="30" as="geometry" />
        </mxCell>
        <mxCell id="max8NpHxDRzMTPAFwEB_-463" value="Возраст ребенка" style="rounded=0;whiteSpace=wrap;html=1;" vertex="1" parent="1">
          <mxGeometry x="755" y="11810" width="120" height="30" as="geometry" />
        </mxCell>
        <mxCell id="max8NpHxDRzMTPAFwEB_-464" value="Элетронная почта&amp;nbsp;" style="rounded=0;whiteSpace=wrap;html=1;" vertex="1" parent="1">
          <mxGeometry x="755" y="11710" width="70" height="30" as="geometry" />
        </mxCell>
        <mxCell id="max8NpHxDRzMTPAFwEB_-465" value="Записаться" style="rounded=1;whiteSpace=wrap;html=1;strokeColor=#FF3333;" vertex="1" parent="1">
          <mxGeometry x="755" y="11855" width="120" height="60" as="geometry" />
        </mxCell>
        <mxCell id="max8NpHxDRzMTPAFwEB_-473" value="&lt;b&gt;&lt;font face=&quot;Times New Roman&quot; style=&quot;font-size: 16px;&quot;&gt;Нефункциональные требования&lt;/font&gt;&lt;/b&gt;" style="rounded=0;whiteSpace=wrap;html=1;" vertex="1" parent="1">
          <mxGeometry x="85.91" y="12040" width="710" height="40" as="geometry" />
        </mxCell>
        <mxCell id="max8NpHxDRzMTPAFwEB_-474" value="" style="shape=table;startSize=0;container=1;collapsible=0;childLayout=tableLayout;" vertex="1" parent="1">
          <mxGeometry x="86.23000000000002" y="12080" width="710.33" height="674" as="geometry" />
        </mxCell>
        <mxCell id="max8NpHxDRzMTPAFwEB_-475" value="" style="shape=tableRow;horizontal=0;startSize=0;swimlaneHead=0;swimlaneBody=0;strokeColor=inherit;top=0;left=0;bottom=0;right=0;collapsible=0;dropTarget=0;fillColor=none;points=[[0,0.5],[1,0.5]];portConstraint=eastwest;" vertex="1" parent="max8NpHxDRzMTPAFwEB_-474">
          <mxGeometry width="710.33" height="145" as="geometry" />
        </mxCell>
        <mxCell id="max8NpHxDRzMTPAFwEB_-476" value="&lt;p class=&quot;MsoNormal&quot;&gt;&lt;b style=&quot;font-family: &amp;quot;Times New Roman&amp;quot;; font-size: 16px;&quot;&gt;Производительность&lt;/b&gt;&lt;br&gt;&lt;/p&gt;" style="shape=partialRectangle;html=1;whiteSpace=wrap;connectable=0;strokeColor=inherit;overflow=hidden;fillColor=none;top=0;left=0;bottom=0;right=0;pointerEvents=1;" vertex="1" parent="max8NpHxDRzMTPAFwEB_-475">
          <mxGeometry width="160" height="145" as="geometry">
            <mxRectangle width="160" height="145" as="alternateBounds" />
          </mxGeometry>
        </mxCell>
        <mxCell id="max8NpHxDRzMTPAFwEB_-477" value="&lt;p class=&quot;MsoNormal&quot;&gt;&lt;font style=&quot;font-size: 12px;&quot;&gt;&lt;font face=&quot;Times New Roman&quot; style=&quot;&quot;&gt;&amp;nbsp;&lt;/font&gt;&lt;span style=&quot;background-color: transparent; color: light-dark(rgb(0, 0, 0), rgb(255, 255, 255));&quot;&gt;1. Страница поиска психологов должна открываться не более 2 секунд.&lt;/span&gt;&lt;/font&gt;&lt;/p&gt;&lt;p class=&quot;MsoNormal&quot;&gt;&lt;font size=&quot;3&quot;&gt;&lt;span style=&quot;font-family: &amp;quot;Times New Roman&amp;quot;; background-color: transparent; color: light-dark(rgb(0, 0, 0), rgb(255, 255, 255));&quot;&gt;&amp;nbsp;2.&amp;nbsp;&lt;/span&gt;&lt;span style=&quot;font-style: inherit; font-variant-ligatures: inherit; font-variant-caps: inherit; background-color: rgb(255, 255, 255);&quot;&gt;&lt;font style=&quot;color: rgb(10, 3, 0);&quot; face=&quot;Times New Roman&quot;&gt;Запрос GET &lt;span style=&quot;color: var(--theme-text-primary); background-color: transparent; font-family: ui-monospace, SFMono-Regular, &amp;quot;SF Mono&amp;quot;, Menlo, Consolas, &amp;quot;Liberation Mono&amp;quot;, monospace;&quot;&gt;/slots&lt;/span&gt;&lt;span style=&quot;color: rgb(0, 0, 0); background-color: initial; font-family: ui-monospace, SFMono-Regular, &amp;quot;SF Mono&amp;quot;, Menlo, Consolas, &amp;quot;Liberation Mono&amp;quot;, monospace;&quot;&gt;/book&amp;nbsp;&lt;/span&gt;должен выдерживать нагрузку 1 запрос в секунду (1 rps) без ухудшения времени отклика, что означает, что система должна быть способна обрабатывать этот запрос с минимальным временем ответа, даже при одновременном выполнении других операций.&lt;/font&gt;&lt;/span&gt;&lt;/font&gt;&lt;/p&gt;" style="shape=partialRectangle;html=1;whiteSpace=wrap;connectable=0;strokeColor=inherit;overflow=hidden;fillColor=none;top=0;left=0;bottom=0;right=0;pointerEvents=1;align=left;" vertex="1" parent="max8NpHxDRzMTPAFwEB_-475">
          <mxGeometry x="160" width="550" height="145" as="geometry">
            <mxRectangle width="550" height="145" as="alternateBounds" />
          </mxGeometry>
        </mxCell>
        <mxCell id="max8NpHxDRzMTPAFwEB_-478" style="shape=tableRow;horizontal=0;startSize=0;swimlaneHead=0;swimlaneBody=0;strokeColor=inherit;top=0;left=0;bottom=0;right=0;collapsible=0;dropTarget=0;fillColor=none;points=[[0,0.5],[1,0.5]];portConstraint=eastwest;" vertex="1" parent="max8NpHxDRzMTPAFwEB_-474">
          <mxGeometry y="145" width="710.33" height="55" as="geometry" />
        </mxCell>
        <mxCell id="max8NpHxDRzMTPAFwEB_-479" value="&lt;p class=&quot;MsoNormal&quot;&gt;&lt;font style=&quot;font-size: 16px;&quot; face=&quot;Times New Roman&quot;&gt;&lt;b style=&quot;&quot;&gt;Доступность&lt;/b&gt;&lt;/font&gt;&lt;/p&gt;" style="shape=partialRectangle;html=1;whiteSpace=wrap;connectable=0;strokeColor=inherit;overflow=hidden;fillColor=none;top=0;left=0;bottom=0;right=0;pointerEvents=1;align=center;" vertex="1" parent="max8NpHxDRzMTPAFwEB_-478">
          <mxGeometry width="160" height="55" as="geometry">
            <mxRectangle width="160" height="55" as="alternateBounds" />
          </mxGeometry>
        </mxCell>
        <mxCell id="max8NpHxDRzMTPAFwEB_-480" value="&lt;p style=&quot;margin-bottom: 0cm;&quot; class=&quot;MsoNormal&quot;&gt;&lt;font style=&quot;font-size: 14px;&quot;&gt;&lt;font style=&quot;&quot; face=&quot;Times New Roman&quot;&gt;&amp;nbsp;1.&amp;nbsp;&lt;/font&gt;&lt;span style=&quot;background-color: transparent;&quot;&gt;&lt;font style=&quot;&quot; face=&quot;Times New Roman&quot;&gt;Система должна быть доступна 99% времени.&lt;/font&gt;&lt;/span&gt;&lt;/font&gt;&lt;/p&gt;" style="shape=partialRectangle;html=1;whiteSpace=wrap;connectable=0;strokeColor=inherit;overflow=hidden;fillColor=none;top=0;left=0;bottom=0;right=0;pointerEvents=1;align=left;" vertex="1" parent="max8NpHxDRzMTPAFwEB_-478">
          <mxGeometry x="160" width="550" height="55" as="geometry">
            <mxRectangle width="550" height="55" as="alternateBounds" />
          </mxGeometry>
        </mxCell>
        <mxCell id="max8NpHxDRzMTPAFwEB_-481" style="shape=tableRow;horizontal=0;startSize=0;swimlaneHead=0;swimlaneBody=0;strokeColor=inherit;top=0;left=0;bottom=0;right=0;collapsible=0;dropTarget=0;fillColor=none;points=[[0,0.5],[1,0.5]];portConstraint=eastwest;" vertex="1" parent="max8NpHxDRzMTPAFwEB_-474">
          <mxGeometry y="200" width="710.33" height="124" as="geometry" />
        </mxCell>
        <mxCell id="max8NpHxDRzMTPAFwEB_-482" value="&lt;p class=&quot;MsoNormal&quot;&gt;&lt;b&gt;&lt;span style=&quot;font-family:&amp;quot;Times New Roman&amp;quot;,serif&quot;&gt;&lt;font style=&quot;font-size: 16px;&quot;&gt;Безопасность&lt;/font&gt;&lt;/span&gt;&lt;/b&gt;&lt;/p&gt;" style="shape=partialRectangle;html=1;whiteSpace=wrap;connectable=0;strokeColor=inherit;overflow=hidden;fillColor=none;top=0;left=0;bottom=0;right=0;pointerEvents=1;" vertex="1" parent="max8NpHxDRzMTPAFwEB_-481">
          <mxGeometry width="160" height="124" as="geometry">
            <mxRectangle width="160" height="124" as="alternateBounds" />
          </mxGeometry>
        </mxCell>
        <mxCell id="max8NpHxDRzMTPAFwEB_-483" value="&lt;p style=&quot;text-align: left; margin-bottom: 0cm;&quot; class=&quot;MsoNormal&quot;&gt;&lt;font style=&quot;font-size: 14px;&quot; face=&quot;Times New Roman&quot;&gt;&amp;nbsp;1. Все данные о заказах должны быть защищены с использованием шифрования (например, HTTPS) для предотвращения несанкционированного доступа.&lt;/font&gt;&lt;/p&gt;&lt;p style=&quot;margin-bottom: 0cm;&quot; class=&quot;MsoNormal&quot;&gt;&lt;/p&gt;&lt;div style=&quot;text-align: left;&quot;&gt;&lt;span style=&quot;font-size: 14px; font-family: &amp;quot;Times New Roman&amp;quot;; background-color: transparent; color: light-dark(rgb(0, 0, 0), rgb(255, 255, 255));&quot;&gt;&amp;nbsp;2. Доступ&amp;nbsp;&lt;/span&gt;&lt;span style=&quot;font-size: 14px; font-family: &amp;quot;Times New Roman&amp;quot;; background-color: transparent; color: light-dark(rgb(0, 0, 0), rgb(255, 255, 255));&quot;&gt;к информации о заказах должен быть ограничен только авторизованным&lt;/span&gt;&lt;/div&gt;&lt;font style=&quot;font-size: 14px;&quot; face=&quot;Times New Roman&quot;&gt;&lt;div style=&quot;text-align: left;&quot;&gt;&lt;span style=&quot;background-color: transparent; color: light-dark(rgb(0, 0, 0), rgb(255, 255, 255));&quot;&gt;пользователям, с использованием многофакторной аутентификации.&lt;/span&gt;&lt;/div&gt;&lt;/font&gt;&lt;p&gt;&lt;/p&gt;" style="shape=partialRectangle;html=1;whiteSpace=wrap;connectable=0;strokeColor=inherit;overflow=hidden;fillColor=none;top=0;left=0;bottom=0;right=0;pointerEvents=1;" vertex="1" parent="max8NpHxDRzMTPAFwEB_-481">
          <mxGeometry x="160" width="550" height="124" as="geometry">
            <mxRectangle width="550" height="124" as="alternateBounds" />
          </mxGeometry>
        </mxCell>
        <mxCell id="max8NpHxDRzMTPAFwEB_-484" style="shape=tableRow;horizontal=0;startSize=0;swimlaneHead=0;swimlaneBody=0;strokeColor=inherit;top=0;left=0;bottom=0;right=0;collapsible=0;dropTarget=0;fillColor=none;points=[[0,0.5],[1,0.5]];portConstraint=eastwest;" vertex="1" parent="max8NpHxDRzMTPAFwEB_-474">
          <mxGeometry y="324" width="710.33" height="124" as="geometry" />
        </mxCell>
        <mxCell id="max8NpHxDRzMTPAFwEB_-485" value="&lt;font style=&quot;font-size: 16px;&quot; face=&quot;Times New Roman&quot;&gt;&lt;b&gt;Удобство использования&lt;/b&gt;&lt;/font&gt;" style="shape=partialRectangle;html=1;whiteSpace=wrap;connectable=0;strokeColor=inherit;overflow=hidden;fillColor=none;top=0;left=0;bottom=0;right=0;pointerEvents=1;" vertex="1" parent="max8NpHxDRzMTPAFwEB_-484">
          <mxGeometry width="160" height="124" as="geometry">
            <mxRectangle width="160" height="124" as="alternateBounds" />
          </mxGeometry>
        </mxCell>
        <mxCell id="max8NpHxDRzMTPAFwEB_-486" value="&lt;p style=&quot;margin-bottom:0cm&quot; class=&quot;MsoNormal&quot;&gt;&lt;font style=&quot;font-size: 14px;&quot; face=&quot;Times New Roman&quot;&gt;&amp;nbsp;1. Интерфейс должен быть интуитивно понятным, и пользователи должны иметь возможность легко регистрироваться и получать информацию без необходимости в обучении.&lt;/font&gt;&lt;/p&gt;" style="shape=partialRectangle;html=1;whiteSpace=wrap;connectable=0;strokeColor=inherit;overflow=hidden;fillColor=none;top=0;left=0;bottom=0;right=0;pointerEvents=1;align=left;" vertex="1" parent="max8NpHxDRzMTPAFwEB_-484">
          <mxGeometry x="160" width="550" height="124" as="geometry">
            <mxRectangle width="550" height="124" as="alternateBounds" />
          </mxGeometry>
        </mxCell>
        <mxCell id="max8NpHxDRzMTPAFwEB_-487" style="shape=tableRow;horizontal=0;startSize=0;swimlaneHead=0;swimlaneBody=0;strokeColor=inherit;top=0;left=0;bottom=0;right=0;collapsible=0;dropTarget=0;fillColor=none;points=[[0,0.5],[1,0.5]];portConstraint=eastwest;" vertex="1" parent="max8NpHxDRzMTPAFwEB_-474">
          <mxGeometry y="448" width="710.33" height="123" as="geometry" />
        </mxCell>
        <mxCell id="max8NpHxDRzMTPAFwEB_-488" value="&lt;font style=&quot;font-size: 16px;&quot; face=&quot;Times New Roman&quot;&gt;&lt;b&gt;Совместимость&lt;/b&gt;&lt;/font&gt;" style="shape=partialRectangle;html=1;whiteSpace=wrap;connectable=0;strokeColor=inherit;overflow=hidden;fillColor=none;top=0;left=0;bottom=0;right=0;pointerEvents=1;" vertex="1" parent="max8NpHxDRzMTPAFwEB_-487">
          <mxGeometry width="160" height="123" as="geometry">
            <mxRectangle width="160" height="123" as="alternateBounds" />
          </mxGeometry>
        </mxCell>
        <mxCell id="max8NpHxDRzMTPAFwEB_-489" value="&lt;p style=&quot;margin-bottom:0cm&quot; class=&quot;MsoNormal&quot;&gt;&lt;font face=&quot;Times New Roman&quot; style=&quot;font-size: 14px;&quot;&gt;&amp;nbsp;1. Сайт должен корректно работать на основных мобильных платформах (iOS, Android) и в современных веб-браузерах (Chrome, Firefox, Safari).&lt;/font&gt;&lt;/p&gt;&lt;p style=&quot;margin-bottom:0cm&quot; class=&quot;MsoNormal&quot;&gt;&lt;font face=&quot;Times New Roman&quot; style=&quot;font-size: 14px;&quot;&gt;&lt;span style=&quot;background-color: transparent; color: light-dark(rgb(0, 0, 0), rgb(255, 255, 255));&quot;&gt;&amp;nbsp;2. Система &lt;/span&gt;&lt;span style=&quot;background-color: transparent; color: light-dark(rgb(0, 0, 0), rgb(255, 255, 255));&quot;&gt;должна поддерживать адаптивный дизайн, чтобы обеспечивать удобный доступ на &lt;/span&gt;&lt;span style=&quot;background-color: transparent; color: light-dark(rgb(0, 0, 0), rgb(255, 255, 255));&quot;&gt;устройствах с различными размерами экранов.&lt;/span&gt;&lt;/font&gt;&lt;/p&gt;" style="shape=partialRectangle;html=1;whiteSpace=wrap;connectable=0;strokeColor=inherit;overflow=hidden;fillColor=none;top=0;left=0;bottom=0;right=0;pointerEvents=1;align=left;" vertex="1" parent="max8NpHxDRzMTPAFwEB_-487">
          <mxGeometry x="160" width="550" height="123" as="geometry">
            <mxRectangle width="550" height="123" as="alternateBounds" />
          </mxGeometry>
        </mxCell>
        <mxCell id="max8NpHxDRzMTPAFwEB_-490" style="shape=tableRow;horizontal=0;startSize=0;swimlaneHead=0;swimlaneBody=0;strokeColor=inherit;top=0;left=0;bottom=0;right=0;collapsible=0;dropTarget=0;fillColor=none;points=[[0,0.5],[1,0.5]];portConstraint=eastwest;" vertex="1" parent="max8NpHxDRzMTPAFwEB_-474">
          <mxGeometry y="571" width="710.33" height="103" as="geometry" />
        </mxCell>
        <mxCell id="max8NpHxDRzMTPAFwEB_-491" value="&lt;font face=&quot;Times New Roman&quot; style=&quot;font-size: 16px;&quot;&gt;&lt;b&gt;Масштабируемость&lt;/b&gt;&lt;/font&gt;" style="shape=partialRectangle;html=1;whiteSpace=wrap;connectable=0;strokeColor=inherit;overflow=hidden;fillColor=none;top=0;left=0;bottom=0;right=0;pointerEvents=1;align=center;" vertex="1" parent="max8NpHxDRzMTPAFwEB_-490">
          <mxGeometry width="160" height="103" as="geometry">
            <mxRectangle width="160" height="103" as="alternateBounds" />
          </mxGeometry>
        </mxCell>
        <mxCell id="max8NpHxDRzMTPAFwEB_-492" value="&lt;p class=&quot;MsoNormal&quot;&gt;&lt;font style=&quot;font-size: 14px;&quot; face=&quot;Times New Roman&quot;&gt;&amp;nbsp;1. Система должна быть способна обрабатывать до 100 одновременных пользователей без&amp;nbsp;ухудшения производительности.&lt;/font&gt;&lt;/p&gt;&lt;p class=&quot;MsoNormal&quot;&gt;&lt;font style=&quot;font-size: 14px;&quot; face=&quot;Times New Roman&quot;&gt;&lt;span style=&quot;background-color: transparent; color: light-dark(rgb(0, 0, 0), rgb(255, 255, 255));&quot;&gt;&amp;nbsp;2. При&amp;nbsp;&lt;/span&gt;&lt;span style=&quot;background-color: transparent; color: light-dark(rgb(0, 0, 0), rgb(255, 255, 255));&quot;&gt;увеличении нагрузки на систему, время отклика не должно превышать 2 секунд для&amp;nbsp;&lt;/span&gt;&lt;span style=&quot;background-color: transparent; color: light-dark(rgb(0, 0, 0), rgb(255, 255, 255));&quot;&gt;95% запросов.&lt;/span&gt;&lt;/font&gt;&lt;/p&gt;" style="shape=partialRectangle;html=1;whiteSpace=wrap;connectable=0;strokeColor=inherit;overflow=hidden;fillColor=none;top=0;left=0;bottom=0;right=0;pointerEvents=1;align=left;" vertex="1" parent="max8NpHxDRzMTPAFwEB_-490">
          <mxGeometry x="160" width="550" height="103" as="geometry">
            <mxRectangle width="550" height="103" as="alternateBounds" />
          </mxGeometry>
        </mxCell>
      </root>
    </mxGraphModel>
  </diagram>
</mxfile>
